<svg xmlns="http://www.w3.org/2000/svg" width="256" height="256" viewBox="0 0 100 100"><rect width="100" height="100" rx="20" fill="#7e74f1"></rect><path fill="#fff" d="M27.35 32.50Q31.90 32.50 35.27 34Q38.65 35.50 40.45 38.30Q42.25 41.10 42.25 44.95L42.25 44.95Q42.25 48.75 40.45 51.58Q38.65 54.40 35.27 55.90Q31.90 57.40 27.35 57.40L27.35 57.40L19.45 57.40L19.45 67.50L12.95 67.50L12.95 32.50L27.35 32.50ZM27.05 51.90Q31.30 51.90 33.50 50.10Q35.70 48.30 35.70 44.95L35.70 44.95Q35.70 41.60 33.50 39.80Q31.30 38 27.05 38L27.05 38L19.45 38L19.45 51.90L27.05 51.90ZM87.05 67.50L80.90 67.50L80.85 44.30L69.35 63.50L66.45 63.50L54.95 44.60L54.95 67.50L48.75 67.50L48.75 32.50L54.10 32.50L68 55.70L81.65 32.50L87 32.50L87.05 67.50Z"></path></svg>